<?xml version="1.0" encoding="UTF-8" standalone="no"?>
<!DOCTYPE svg PUBLIC "-//W3C//DTD SVG 20010904//EN"
              "http://www.w3.org/TR/2001/REC-SVG-20010904/DTD/svg10.dtd">

<svg xmlns="http://www.w3.org/2000/svg"
     width="1.06667in" height="1.06667in"
     viewBox="0 0 96 96">
  <path id="Ruta importada"
        fill="#FFA800"
        d="M 52.44,93.60
           C 62.06,81.56 84.00,52.39 84.00,36.00
             84.00,16.13 67.88,0.00 48.00,0.00
             28.13,0.00 12.00,16.13 12.00,36.00
             12.00,52.39 33.94,81.56 43.56,93.60
             45.86,96.47 50.14,96.47 52.44,93.60
             52.44,93.60 52.44,93.60 52.44,93.60 Z
           M 48.00,48.00
           C 41.38,48.00 36.00,42.62 36.00,36.00
             36.00,29.38 41.38,24.00 48.00,24.00
             54.62,24.00 60.00,29.38 60.00,36.00
             60.00,42.62 54.62,48.00 48.00,48.00 Z" />
</svg>
